<mxfile host="app.diagrams.net" modified="2024-07-19T07:16:28.359Z" agent="Mozilla/5.0 (Macintosh; Intel Mac OS X 10_15_7) AppleWebKit/537.36 (KHTML, like Gecko) Chrome/126.0.0.0 Safari/537.36" etag="zhvFJpSH3Y6SolkFQqlJ" version="24.4.2" type="device">
  <diagram name="Page-1" id="XYp5jViIIdNXOklfFiio">
    <mxGraphModel dx="1860" dy="580" grid="1" gridSize="10" guides="1" tooltips="1" connect="1" arrows="1" fold="1" page="1" pageScale="1" pageWidth="850" pageHeight="1100" math="0" shadow="0">
      <root>
        <mxCell id="0" />
        <mxCell id="1" parent="0" />
        <mxCell id="gkToRR1nEhrxYj9lXTCE-5" style="edgeStyle=orthogonalEdgeStyle;rounded=0;orthogonalLoop=1;jettySize=auto;html=1;exitX=0.5;exitY=1;exitDx=0;exitDy=0;" edge="1" parent="1" source="gkToRR1nEhrxYj9lXTCE-1" target="gkToRR1nEhrxYj9lXTCE-2">
          <mxGeometry relative="1" as="geometry" />
        </mxCell>
        <mxCell id="gkToRR1nEhrxYj9lXTCE-31" value="" style="edgeStyle=orthogonalEdgeStyle;rounded=0;orthogonalLoop=1;jettySize=auto;html=1;" edge="1" parent="1" source="gkToRR1nEhrxYj9lXTCE-1" target="gkToRR1nEhrxYj9lXTCE-30">
          <mxGeometry relative="1" as="geometry" />
        </mxCell>
        <mxCell id="gkToRR1nEhrxYj9lXTCE-1" value="Home" style="rounded=1;whiteSpace=wrap;html=1;" vertex="1" parent="1">
          <mxGeometry x="680" y="60" width="120" height="60" as="geometry" />
        </mxCell>
        <mxCell id="gkToRR1nEhrxYj9lXTCE-6" style="edgeStyle=orthogonalEdgeStyle;rounded=0;orthogonalLoop=1;jettySize=auto;html=1;exitX=0.5;exitY=1;exitDx=0;exitDy=0;" edge="1" parent="1" source="gkToRR1nEhrxYj9lXTCE-2" target="gkToRR1nEhrxYj9lXTCE-3">
          <mxGeometry relative="1" as="geometry" />
        </mxCell>
        <mxCell id="gkToRR1nEhrxYj9lXTCE-2" value="Create Offer" style="rounded=1;whiteSpace=wrap;html=1;" vertex="1" parent="1">
          <mxGeometry x="350" y="220" width="120" height="60" as="geometry" />
        </mxCell>
        <mxCell id="gkToRR1nEhrxYj9lXTCE-7" style="edgeStyle=orthogonalEdgeStyle;rounded=0;orthogonalLoop=1;jettySize=auto;html=1;exitX=0.5;exitY=1;exitDx=0;exitDy=0;" edge="1" parent="1" source="gkToRR1nEhrxYj9lXTCE-3" target="gkToRR1nEhrxYj9lXTCE-4">
          <mxGeometry relative="1" as="geometry" />
        </mxCell>
        <mxCell id="gkToRR1nEhrxYj9lXTCE-3" value="Search MLS" style="rounded=1;whiteSpace=wrap;html=1;" vertex="1" parent="1">
          <mxGeometry x="350" y="350" width="120" height="60" as="geometry" />
        </mxCell>
        <mxCell id="gkToRR1nEhrxYj9lXTCE-9" style="edgeStyle=orthogonalEdgeStyle;rounded=0;orthogonalLoop=1;jettySize=auto;html=1;exitX=0.5;exitY=1;exitDx=0;exitDy=0;" edge="1" parent="1" source="gkToRR1nEhrxYj9lXTCE-4" target="gkToRR1nEhrxYj9lXTCE-8">
          <mxGeometry relative="1" as="geometry" />
        </mxCell>
        <mxCell id="gkToRR1nEhrxYj9lXTCE-4" value="Confirm MLS to create Offer" style="rounded=1;whiteSpace=wrap;html=1;" vertex="1" parent="1">
          <mxGeometry x="350" y="480" width="120" height="60" as="geometry" />
        </mxCell>
        <mxCell id="gkToRR1nEhrxYj9lXTCE-11" style="edgeStyle=orthogonalEdgeStyle;rounded=0;orthogonalLoop=1;jettySize=auto;html=1;exitX=0.5;exitY=1;exitDx=0;exitDy=0;" edge="1" parent="1" source="gkToRR1nEhrxYj9lXTCE-8" target="gkToRR1nEhrxYj9lXTCE-10">
          <mxGeometry relative="1" as="geometry" />
        </mxCell>
        <mxCell id="gkToRR1nEhrxYj9lXTCE-8" value="Call API POST /offer&lt;div&gt;to create offer&lt;/div&gt;" style="rounded=1;whiteSpace=wrap;html=1;" vertex="1" parent="1">
          <mxGeometry x="350" y="610" width="120" height="60" as="geometry" />
        </mxCell>
        <mxCell id="gkToRR1nEhrxYj9lXTCE-13" style="edgeStyle=orthogonalEdgeStyle;rounded=0;orthogonalLoop=1;jettySize=auto;html=1;exitX=0.5;exitY=1;exitDx=0;exitDy=0;entryX=0.5;entryY=0;entryDx=0;entryDy=0;" edge="1" parent="1" source="gkToRR1nEhrxYj9lXTCE-10" target="gkToRR1nEhrxYj9lXTCE-12">
          <mxGeometry relative="1" as="geometry" />
        </mxCell>
        <mxCell id="gkToRR1nEhrxYj9lXTCE-14" value="yes" style="edgeLabel;html=1;align=center;verticalAlign=middle;resizable=0;points=[];" vertex="1" connectable="0" parent="gkToRR1nEhrxYj9lXTCE-13">
          <mxGeometry x="-0.0333" y="-1" relative="1" as="geometry">
            <mxPoint as="offset" />
          </mxGeometry>
        </mxCell>
        <mxCell id="gkToRR1nEhrxYj9lXTCE-16" style="edgeStyle=orthogonalEdgeStyle;rounded=0;orthogonalLoop=1;jettySize=auto;html=1;exitX=0;exitY=0.5;exitDx=0;exitDy=0;entryX=1;entryY=0.5;entryDx=0;entryDy=0;" edge="1" parent="1" source="gkToRR1nEhrxYj9lXTCE-10" target="gkToRR1nEhrxYj9lXTCE-15">
          <mxGeometry relative="1" as="geometry" />
        </mxCell>
        <mxCell id="gkToRR1nEhrxYj9lXTCE-20" value="no" style="edgeLabel;html=1;align=center;verticalAlign=middle;resizable=0;points=[];" vertex="1" connectable="0" parent="gkToRR1nEhrxYj9lXTCE-16">
          <mxGeometry x="-0.3455" y="3" relative="1" as="geometry">
            <mxPoint as="offset" />
          </mxGeometry>
        </mxCell>
        <mxCell id="gkToRR1nEhrxYj9lXTCE-10" value="success" style="rhombus;whiteSpace=wrap;html=1;" vertex="1" parent="1">
          <mxGeometry x="370" y="720" width="80" height="80" as="geometry" />
        </mxCell>
        <mxCell id="gkToRR1nEhrxYj9lXTCE-23" value="" style="edgeStyle=orthogonalEdgeStyle;rounded=0;orthogonalLoop=1;jettySize=auto;html=1;" edge="1" parent="1" source="gkToRR1nEhrxYj9lXTCE-12" target="gkToRR1nEhrxYj9lXTCE-22">
          <mxGeometry relative="1" as="geometry" />
        </mxCell>
        <mxCell id="gkToRR1nEhrxYj9lXTCE-25" value="" style="edgeStyle=orthogonalEdgeStyle;rounded=0;orthogonalLoop=1;jettySize=auto;html=1;" edge="1" parent="1" source="gkToRR1nEhrxYj9lXTCE-12" target="gkToRR1nEhrxYj9lXTCE-24">
          <mxGeometry relative="1" as="geometry" />
        </mxCell>
        <mxCell id="gkToRR1nEhrxYj9lXTCE-12" value="Goto Create Offer Page" style="rounded=1;whiteSpace=wrap;html=1;" vertex="1" parent="1">
          <mxGeometry x="350" y="888" width="120" height="60" as="geometry" />
        </mxCell>
        <mxCell id="gkToRR1nEhrxYj9lXTCE-19" style="edgeStyle=orthogonalEdgeStyle;rounded=0;orthogonalLoop=1;jettySize=auto;html=1;exitX=0.5;exitY=0;exitDx=0;exitDy=0;entryX=0;entryY=0.5;entryDx=0;entryDy=0;" edge="1" parent="1" source="gkToRR1nEhrxYj9lXTCE-15" target="gkToRR1nEhrxYj9lXTCE-4">
          <mxGeometry relative="1" as="geometry" />
        </mxCell>
        <mxCell id="gkToRR1nEhrxYj9lXTCE-15" value="Show error" style="shape=process;whiteSpace=wrap;html=1;backgroundOutline=1;" vertex="1" parent="1">
          <mxGeometry x="140" y="730" width="120" height="60" as="geometry" />
        </mxCell>
        <mxCell id="gkToRR1nEhrxYj9lXTCE-22" value="Save Offer Draft to Local DB" style="whiteSpace=wrap;html=1;rounded=1;dashed=1;" vertex="1" parent="1">
          <mxGeometry x="150" y="888" width="120" height="60" as="geometry" />
        </mxCell>
        <mxCell id="gkToRR1nEhrxYj9lXTCE-27" value="" style="edgeStyle=orthogonalEdgeStyle;rounded=0;orthogonalLoop=1;jettySize=auto;html=1;" edge="1" parent="1" source="gkToRR1nEhrxYj9lXTCE-24" target="gkToRR1nEhrxYj9lXTCE-26">
          <mxGeometry relative="1" as="geometry" />
        </mxCell>
        <mxCell id="gkToRR1nEhrxYj9lXTCE-24" value="User can editing&amp;nbsp;&lt;div&gt;Offer info&lt;/div&gt;" style="whiteSpace=wrap;html=1;rounded=1;" vertex="1" parent="1">
          <mxGeometry x="350" y="1028" width="120" height="60" as="geometry" />
        </mxCell>
        <mxCell id="gkToRR1nEhrxYj9lXTCE-28" style="edgeStyle=orthogonalEdgeStyle;rounded=0;orthogonalLoop=1;jettySize=auto;html=1;exitX=0.5;exitY=0;exitDx=0;exitDy=0;entryX=0.5;entryY=1;entryDx=0;entryDy=0;" edge="1" parent="1" source="gkToRR1nEhrxYj9lXTCE-26" target="gkToRR1nEhrxYj9lXTCE-22">
          <mxGeometry relative="1" as="geometry" />
        </mxCell>
        <mxCell id="gkToRR1nEhrxYj9lXTCE-26" value="Mark Draft is un_synced" style="whiteSpace=wrap;html=1;rounded=1;dashed=1;" vertex="1" parent="1">
          <mxGeometry x="150" y="1028" width="120" height="60" as="geometry" />
        </mxCell>
        <mxCell id="gkToRR1nEhrxYj9lXTCE-29" value="Mark the Draft is un_synced&lt;div&gt;&amp;nbsp;to sync Local to Server later&lt;div&gt;&lt;br&gt;&lt;/div&gt;&lt;/div&gt;" style="text;html=1;align=center;verticalAlign=middle;resizable=0;points=[];autosize=1;strokeColor=none;fillColor=none;" vertex="1" parent="1">
          <mxGeometry x="-40" y="1028" width="180" height="60" as="geometry" />
        </mxCell>
        <mxCell id="gkToRR1nEhrxYj9lXTCE-33" value="" style="edgeStyle=orthogonalEdgeStyle;rounded=0;orthogonalLoop=1;jettySize=auto;html=1;" edge="1" parent="1" source="gkToRR1nEhrxYj9lXTCE-30" target="gkToRR1nEhrxYj9lXTCE-32">
          <mxGeometry relative="1" as="geometry" />
        </mxCell>
        <mxCell id="gkToRR1nEhrxYj9lXTCE-30" value="List Offer" style="whiteSpace=wrap;html=1;rounded=1;" vertex="1" parent="1">
          <mxGeometry x="790" y="220" width="120" height="60" as="geometry" />
        </mxCell>
        <mxCell id="gkToRR1nEhrxYj9lXTCE-37" value="" style="edgeStyle=orthogonalEdgeStyle;rounded=0;orthogonalLoop=1;jettySize=auto;html=1;" edge="1" parent="1" source="gkToRR1nEhrxYj9lXTCE-32">
          <mxGeometry relative="1" as="geometry">
            <mxPoint x="850" y="490" as="targetPoint" />
          </mxGeometry>
        </mxCell>
        <mxCell id="gkToRR1nEhrxYj9lXTCE-32" value="Open Offer Detail page" style="whiteSpace=wrap;html=1;rounded=1;" vertex="1" parent="1">
          <mxGeometry x="790" y="360" width="120" height="60" as="geometry" />
        </mxCell>
        <mxCell id="gkToRR1nEhrxYj9lXTCE-39" style="edgeStyle=orthogonalEdgeStyle;rounded=0;orthogonalLoop=1;jettySize=auto;html=1;exitX=1;exitY=0.5;exitDx=0;exitDy=0;" edge="1" parent="1" target="gkToRR1nEhrxYj9lXTCE-38">
          <mxGeometry relative="1" as="geometry">
            <mxPoint x="890" y="530" as="sourcePoint" />
          </mxGeometry>
        </mxCell>
        <mxCell id="gkToRR1nEhrxYj9lXTCE-40" value="no" style="edgeLabel;html=1;align=center;verticalAlign=middle;resizable=0;points=[];" vertex="1" connectable="0" parent="gkToRR1nEhrxYj9lXTCE-39">
          <mxGeometry x="-0.66" y="-1" relative="1" as="geometry">
            <mxPoint as="offset" />
          </mxGeometry>
        </mxCell>
        <mxCell id="gkToRR1nEhrxYj9lXTCE-38" value="View Only&lt;div&gt;User cannot edit Offer&lt;/div&gt;" style="shape=process;whiteSpace=wrap;html=1;backgroundOutline=1;" vertex="1" parent="1">
          <mxGeometry x="990" y="500" width="120" height="60" as="geometry" />
        </mxCell>
        <mxCell id="gkToRR1nEhrxYj9lXTCE-49" value="" style="edgeStyle=orthogonalEdgeStyle;rounded=0;orthogonalLoop=1;jettySize=auto;html=1;" edge="1" parent="1" source="gkToRR1nEhrxYj9lXTCE-42" target="gkToRR1nEhrxYj9lXTCE-48">
          <mxGeometry relative="1" as="geometry" />
        </mxCell>
        <mxCell id="gkToRR1nEhrxYj9lXTCE-42" value="isDraft" style="rhombus;whiteSpace=wrap;html=1;rounded=1;" vertex="1" parent="1">
          <mxGeometry x="810" y="490" width="80" height="80" as="geometry" />
        </mxCell>
        <mxCell id="gkToRR1nEhrxYj9lXTCE-44" value="It mean the Offer&#39;s status is DRAFT" style="text;html=1;align=center;verticalAlign=middle;whiteSpace=wrap;rounded=0;" vertex="1" parent="1">
          <mxGeometry x="675" y="515" width="130" height="30" as="geometry" />
        </mxCell>
        <mxCell id="gkToRR1nEhrxYj9lXTCE-51" value="" style="edgeStyle=orthogonalEdgeStyle;rounded=0;orthogonalLoop=1;jettySize=auto;html=1;" edge="1" parent="1" source="gkToRR1nEhrxYj9lXTCE-48" target="gkToRR1nEhrxYj9lXTCE-50">
          <mxGeometry relative="1" as="geometry" />
        </mxCell>
        <mxCell id="gkToRR1nEhrxYj9lXTCE-52" value="no" style="edgeLabel;html=1;align=center;verticalAlign=middle;resizable=0;points=[];" vertex="1" connectable="0" parent="gkToRR1nEhrxYj9lXTCE-51">
          <mxGeometry x="-0.56" y="-2" relative="1" as="geometry">
            <mxPoint as="offset" />
          </mxGeometry>
        </mxCell>
        <mxCell id="gkToRR1nEhrxYj9lXTCE-54" value="" style="edgeStyle=orthogonalEdgeStyle;rounded=0;orthogonalLoop=1;jettySize=auto;html=1;entryX=1;entryY=0.5;entryDx=0;entryDy=0;" edge="1" parent="1" source="gkToRR1nEhrxYj9lXTCE-48" target="gkToRR1nEhrxYj9lXTCE-24">
          <mxGeometry relative="1" as="geometry">
            <mxPoint x="850" y="820" as="targetPoint" />
          </mxGeometry>
        </mxCell>
        <mxCell id="gkToRR1nEhrxYj9lXTCE-56" value="yes" style="edgeLabel;html=1;align=center;verticalAlign=middle;resizable=0;points=[];" vertex="1" connectable="0" parent="gkToRR1nEhrxYj9lXTCE-54">
          <mxGeometry x="-0.4667" relative="1" as="geometry">
            <mxPoint x="130" y="-19" as="offset" />
          </mxGeometry>
        </mxCell>
        <mxCell id="gkToRR1nEhrxYj9lXTCE-48" value="isSynced" style="rhombus;whiteSpace=wrap;html=1;rounded=1;" vertex="1" parent="1">
          <mxGeometry x="810" y="650" width="80" height="80" as="geometry" />
        </mxCell>
        <mxCell id="gkToRR1nEhrxYj9lXTCE-62" value="" style="edgeStyle=orthogonalEdgeStyle;rounded=0;orthogonalLoop=1;jettySize=auto;html=1;" edge="1" parent="1" source="gkToRR1nEhrxYj9lXTCE-50" target="gkToRR1nEhrxYj9lXTCE-61">
          <mxGeometry relative="1" as="geometry" />
        </mxCell>
        <mxCell id="gkToRR1nEhrxYj9lXTCE-50" value="Call API PUT /offer&lt;div&gt;to synced data&lt;/div&gt;" style="whiteSpace=wrap;html=1;rounded=1;dashed=1;" vertex="1" parent="1">
          <mxGeometry x="790" y="800" width="120" height="60" as="geometry" />
        </mxCell>
        <mxCell id="gkToRR1nEhrxYj9lXTCE-59" style="edgeStyle=orthogonalEdgeStyle;rounded=0;orthogonalLoop=1;jettySize=auto;html=1;exitX=0.5;exitY=0;exitDx=0;exitDy=0;entryX=0.5;entryY=1;entryDx=0;entryDy=0;" edge="1" parent="1" target="gkToRR1nEhrxYj9lXTCE-58">
          <mxGeometry relative="1" as="geometry">
            <mxPoint x="990" y="910" as="sourcePoint" />
          </mxGeometry>
        </mxCell>
        <mxCell id="gkToRR1nEhrxYj9lXTCE-64" style="edgeStyle=orthogonalEdgeStyle;rounded=0;orthogonalLoop=1;jettySize=auto;html=1;exitX=0.5;exitY=1;exitDx=0;exitDy=0;entryX=1;entryY=0.5;entryDx=0;entryDy=0;" edge="1" parent="1" source="gkToRR1nEhrxYj9lXTCE-61" target="gkToRR1nEhrxYj9lXTCE-24">
          <mxGeometry relative="1" as="geometry" />
        </mxCell>
        <mxCell id="gkToRR1nEhrxYj9lXTCE-61" value="Mark Offer is synced" style="whiteSpace=wrap;html=1;rounded=1;dashed=1;" vertex="1" parent="1">
          <mxGeometry x="790" y="920" width="120" height="60" as="geometry" />
        </mxCell>
      </root>
    </mxGraphModel>
  </diagram>
</mxfile>
